/* XPM */
static char *result[] = {
/* columns rows colors chars-per-pixel */
"32 32 119 2 ",
"   c black",
".  c #010101",
"X  c #010202",
"o  c #020202",
"O  c gray1",
"+  c gray2",
"@  c #060606",
"#  c #070707",
"$  c gray4",
"%  c #0C0C0C",
"&  c gray5",
"*  c gray6",
"=  c #111111",
"-  c gray8",
";  c #151515",
":  c gray12",
">  c #200C06",
",  c #220C06",
"<  c #222222",
"1  c #232323",
"2  c #282828",
"3  c #2A2A2A",
"4  c gray17",
"5  c gray18",
"6  c gray19",
"7  c #323232",
"8  c gray20",
"9  c #343434",
"0  c gray36",
"q  c #EB631D",
"w  c #D45725",
"e  c #DD5F32",
"r  c #EE5A23",
"t  c #EF5C23",
"y  c #EA5925",
"u  c #EF5B25",
"i  c #ED5B26",
"p  c #EF5D25",
"a  c #E65B28",
"s  c #E55C2B",
"d  c #E35D2D",
"f  c #E95E29",
"g  c #EF5D2C",
"h  c #F05B21",
"j  c #F25B21",
"k  c #F15B23",
"l  c #F05C22",
"z  c #F15A24",
"x  c #F15A25",
"c  c #F05B25",
"v  c #F35B25",
"b  c #F15A26",
"n  c #F05B26",
"m  c #F05C25",
"M  c #F35C27",
"N  c #F25B28",
"B  c #EC5E30",
"V  c #DB653A",
"C  c #ED622D",
"Z  c #F26324",
"A  c #F36226",
"S  c #F46F22",
"D  c #F27023",
"F  c #E56031",
"G  c #E86232",
"H  c #E06739",
"J  c #E5643C",
"K  c #E36F3E",
"L  c #E56E3F",
"P  c #F26130",
"I  c #F1693A",
"U  c #DF6A42",
"Y  c #E67446",
"T  c #EA744B",
"R  c #E87B4F",
"E  c #F29717",
"W  c #F4951B",
"Q  c #F7971C",
"!  c #F9921E",
"~  c #F59C1B",
"^  c #F5A81F",
"/  c #F58120",
"(  c #F98420",
")  c #F58822",
"_  c #F78C23",
"`  c #F88C20",
"'  c #F89220",
"]  c #FA9221",
"[  c #FB9223",
"{  c #F89420",
"}  c #E39331",
"|  c #F6C51E",
" . c #FCEF1F",
".. c #F7C720",
"X. c #F9D321",
"o. c #FAD928",
"O. c #FBE024",
"+. c #FDEE23",
"@. c #FDEF24",
"#. c #FEEE24",
"$. c #FFE92F",
"%. c #F4E139",
"&. c #F4E73A",
"*. c #928764",
"=. c #E28054",
"-. c #EAA047",
";. c #EEE440",
":. c #EEE441",
">. c #CDCA7D",
",. c #8C8783",
"<. c #BBBB9C",
"1. c #B6B4AD",
"2. c #B4B3B3",
"3. c #B1B4B3",
"4. c #B4B4B1",
"5. c #C4C28D",
"6. c #C8C8C8",
"7. c gray85",
"8. c None",
/* pixels */
"8.8.8.8.8.8.8.8.8.8.8.8.8.8.8.8.8.8.8.8.8.8.8.8.8.8.8.8.8.8.8.8.",
"8.8.8.8.8.8.8.8.8.8.8.8.8.8.8.8.8.8.8.=.V 8.8.8.8.8.8.8.8.8.8.8.",
"8.8.8.8.8.8.8.8.8.8.8.8.8.8.8.8.8.8.8.C A 8.8.8.8.r 8.8.8.8.8.8.",
"8.8.8.8.8.8.8.8.8.8.8.8.8.8.8.8.8.8.8.g ' ` L d P b 8.8.8.8.8.8.",
"8.8.8.8.8.8.8.8.8.8.8.8.8.8.8.8.y 8.8.v { ! S D Z M N 8.8.8.8.8.",
"8.8.8.8.8.8.8.8.8.8.8.8.8.8.8.8.a x b c #.~ W $.t m i 8.8.8.8.8.",
"8.8.8.8.8.8.8.8.8.8.8.8.8.8.8.8.8.J u ( @. .+.| ] [ G d s 8.8.8.",
"8.8.8.8.8.8.8.8.8.8.8.8.8.8.8.8.} 8.8.) :.1.>.E ] j l f 8.8.8.8.",
"8.8.8.8.8.8.8.8.8.8.8.8.8.8.8.8.U H Y ..5.4.;.X.^ B 8.8.8.8.8.8.",
"8.8.8.8.8.8.8.8.8.8.8.8.8.8.8.8.h k q %.3.<.O.o._ F 8.e 8.8.8.8.",
"8.8.8.8.8.8.8.8.8.8.8.8.8.8.8.8.8., > ,.2.&./ p z n 8.8.8.8.8.8.",
"8.8.8.8.8.8.8.8.8.8.8.8.8.8.8.8.o . 7 + *.Q I 8.8.T R 8.8.8.8.8.",
"8.8.8.8.8.8.8.8.8.8.8.8.8.8.8..   8 8 9 X w K 8.8.8.8.8.8.8.8.8.",
"8.8.8.8.8.8.8.8.8.8.8.            : 8 * 8.8.8.8.8.8.8.8.8.8.8.8.",
"8.8.8.8.8.8.8.8.8.              9 8 8 * 8.8.8.8.8.8.8.8.8.8.8.8.",
"8.8.8.8.8.8.8.8.o .           = = 8 8 8 < 8.8.8.8.8.-.8.8.8.8.8.",
"8.8.8.8.8.8.8.o . .           . . ; o 8 8 & 8.8.8.8.8.8.8.8.8.8.",
"8.8.8.8.8.8.8.                      5 8 8 8 o 8.8.8.8.8.8.8.8.8.",
"8.8.8.8.8.8.                        9 9 9 9 < 8.8.8.8.8.8.8.8.8.",
"8.8.8.8.8.8.                        & 9 9 9 9 . 8.8.8.8.8.8.8.8.",
"8.8.8.8.8..                       @ 9 8 0 6.9 . 8.8.8.8.8.8.8.8.",
"8.8.8.8.8..                       : 8 8 7.9 9 . 8.8.8.8.8.8.8.8.",
"8.8.8.8.8..                       % 8 8 9 9 8 o 8.8.8.8.8.8.8.8.",
"8.8.8.8.8.8.                          2 9 9 8 o 8.8.8.8.8.8.8.8.",
"8.8.8.8.8.8.                          . 9 9 4 8.8.8.8.8.8.8.8.8.",
"8.8.8.8.8.8.8.                      . 7 9 9 1 8.8.8.8.8.8.8.8.8.",
"8.8.8.8.8.8.8..                       $ 8 9 O 8.8.8.8.8.8.8.8.8.",
"8.8.8.8.8.8.8..                   @ $ 2 7 % 8.8.8.8.8.8.8.8.8.8.",
"8.8.8.8.8.8.8.8.+             - 6 8 8 8 & 8.8.8.8.8.8.8.8.8.8.8.",
"8.8.8.8.8.8.8.8.8.o       # 8 8 8 3 1 o 8.8.8.8.8.8.8.8.8.8.8.8.",
"8.8.8.8.8.8.8.8.8.8.8.. o o o o o 8.8.8.8.8.8.8.8.8.8.8.8.8.8.8.",
"8.8.8.8.8.8.8.8.8.8.8.8.8.8.8.8.8.8.8.8.8.8.8.8.8.8.8.8.8.8.8.8."
};
