/* XPM */
static char *result[] = {
/* columns rows colors chars-per-pixel */
"32 64 8 1 ",
"  c #35271F",
". c #453224",
"X c #563F2A",
"o c #664729",
"O c #7A5937",
"+ c #846141",
"@ c #8D6845",
"# c None",
/* pixels */
"################################",
"################################",
"################################",
"################################",
"################################",
"################################",
"################################",
"################################",
"################################",
"################################",
"################################",
"################################",
"################################",
"################################",
"################################",
"################################",
"################################",
"################################",
"################################",
"################################",
"################################",
"################################",
"                                ",
"                                ",
"  OOOOOOXXOOOOXXOOOOOOXXOOOOOO  ",
"  OOOOOOXXOOOOXXOOOOOOXXOOOOOO  ",
"  OOOOOOXXOOOOXXOOOOOOXXOOOOOO  ",
"  OOOOOOXXOOOOXXOOOOOOXXOOOOOO  ",
"  OOOOOOXXOOOOXXOOOOOOXXOOOOOO  ",
"  OOOOOOXXOOOOXXOOOOOOXXOOOOOO  ",
"  OOOOOOXXOOOOXXOOOOOOXXOOOOOO  ",
"  OOOOOOXXOOOOXXOOOOOOXXOOOOOO  ",
"  OOOOOOXXOOOOXXOOOOOOXXOOOOOO  ",
"  OOOOOOXXOOOOXXOOOOOOXXOOOOOO  ",
"  OOOOOOXXOOOOXXOOOOOOXXOOOOOO  ",
"  OOOOOOXXOOOOXXOOOOOOXXOOOOOO  ",
"  OOOOOOXXOOOOXXOOOOOOXXOOOOOO  ",
"  OOOOOOXXOOOOXXOOOOOOXXOOOOOO  ",
"  OOOOOOXXOOOOXXOOOOOOXXOOOOOO  ",
"  OOOOOOXXOOOOXXOOOOOOXXOOOOOO  ",
"  @@@@@@@@@@@@@@@@@@@@@@@@@@@@  ",
"  @@@@@@@@@@@@@@@@@@@@@@@@@@@@  ",
"  oooooooooooooooooooooooooooo  ",
"  oooooooooooooooooooooooooooo  ",
"  ooooXXXXXXXXXXXXXXXXXXXXoooo  ",
"  ooooXXXXXXXXXXXXXXXXXXXXoooo  ",
"  ooooXXoooo..oooo..ooooXXoooo  ",
"  ooooXXoooo..oooo..ooooXXoooo  ",
"  ooooXXoooo..oooo..ooooXXoooo  ",
"  ooooXXoooo..oooo..ooooXXoooo  ",
"  ooooXXoooo..oooo..ooooXXoooo  ",
"  ooooXXoooo..oooo..ooooXXoooo  ",
"  ooooXXoooo..oooo..ooooXXoooo  ",
"  ooooXXoooo..oooo..ooooXXoooo  ",
"  ooooXXoooo..oooo..ooooXXoooo  ",
"  ooooXXoooo..oooo..ooooXXoooo  ",
"  ooooXXooooooooooooooooXXoooo  ",
"  ooooXXooooooooooooooooXXoooo  ",
"  oooo++++++++++++++++++++oooo  ",
"  oooo++++++++++++++++++++oooo  ",
"  oooooooooooooooooooooooooooo  ",
"  oooooooooooooooooooooooooooo  ",
"                                ",
"                                "
};
