/* XPM */
static char *result[] = {
/* columns rows colors chars-per-pixel */
"32 32 151 2 ",
"   c #1C1117",
".  c #1D1117",
"X  c #1D1118",
"o  c #1D1218",
"O  c #1E1218",
"+  c #20131A",
"@  c #211619",
"#  c #231719",
"$  c #20141A",
"%  c #20141B",
"&  c #24161E",
"*  c #24171E",
"=  c #25171F",
"-  c #27171F",
";  c #291B1B",
":  c #2C1D1B",
">  c #2B1E1C",
",  c #2C1E1C",
"<  c #2C1F1C",
"1  c #30211E",
"2  c #31211E",
"3  c #34241F",
"4  c #35271F",
"5  c #281820",
"6  c #291921",
"7  c #281A20",
"8  c #2B1A23",
"9  c #2C1A23",
"0  c #2B1D23",
"q  c #2C1A24",
"w  c #2D1B24",
"e  c #2D1B25",
"r  c #2E1C25",
"t  c #301D27",
"y  c #321E28",
"u  c #331F29",
"i  c #232028",
"p  c #352421",
"a  c #362520",
"s  c #3A2A20",
"d  c #3C2A22",
"f  c #3E2C22",
"g  c #322228",
"h  c #35202B",
"j  c #35242B",
"k  c #3A232E",
"l  c #3C2430",
"z  c #3E2632",
"x  c #3C2931",
"c  c #2B323D",
"v  c #402F23",
"b  c #433022",
"n  c #463222",
"m  c #493423",
"M  c #483526",
"N  c #493526",
"B  c #4D3827",
"V  c #4E3728",
"C  c #523A25",
"Z  c #553C26",
"A  c #583E26",
"S  c #513B29",
"D  c #553E2A",
"F  c #563F2A",
"G  c #583F2F",
"H  c #402734",
"J  c #422835",
"K  c #432E36",
"L  c #462C38",
"P  c #482F3A",
"I  c #463139",
"U  c #4A343B",
"Y  c #4A323C",
"T  c #4B333D",
"R  c #4D363E",
"E  c #57402A",
"W  c #59402A",
"Q  c #59412B",
"!  c #5F4329",
"~  c #5C422A",
"^  c #5D422A",
"/  c #5D432A",
"(  c #5E432A",
")  c #5A422C",
"_  c #5B432D",
"`  c #5C432C",
"'  c #614428",
"]  c #604429",
"[  c #614429",
"{  c #624529",
"}  c #664729",
"|  c #60452E",
" . c #60462E",
".. c #67482A",
"X. c #62482E",
"o. c #654A2F",
"O. c #6A4B2C",
"+. c #6C4C2D",
"@. c #6D4D2E",
"#. c #6F4E2F",
"$. c #674B30",
"%. c #644A33",
"&. c #6B4E32",
"*. c #6F4F30",
"=. c #6E5033",
"-. c #6C5035",
";. c #6D5038",
":. c #6F5238",
">. c #715130",
",. c #715031",
"<. c #705233",
"1. c #735233",
"2. c #745433",
"3. c #765534",
"4. c #775635",
"5. c #775736",
"6. c #785636",
"7. c #785736",
"8. c #795837",
"9. c #7A5937",
"0. c #7B5937",
"q. c #77573A",
"w. c #7B5938",
"e. c #7D5B39",
"r. c #7E5C3A",
"t. c #7F5D3B",
"y. c #7A5A3C",
"u. c #313B48",
"i. c #313E4B",
"p. c #523A42",
"a. c #334351",
"s. c #354351",
"d. c #364958",
"f. c #3E5B6D",
"g. c #415A6C",
"h. c #815E3C",
"j. c #825F3D",
"k. c #83603E",
"l. c #84613E",
"z. c #84613F",
"x. c #876341",
"c. c #886441",
"v. c #886442",
"b. c #896542",
"n. c #8C6845",
"m. c #4C768C",
"M. c #4E7A90",
"N. c #538199",
"B. c #55849D",
"V. c #5A8CA6",
"C. c None",
/* pixels */
"C.C.C.C.C.C.C.C.C.                            C.C.C.C.C.C.C.C.C.",
"C.C.C.C.C.C.C.    x p.0 I p.p.O p.p.U 7 p.p.x     C.C.C.C.C.C.C.",
"C.C.C.C.C.  g p.p.P J - k J y . J H w & J l 5 j p.g   C.C.C.C.C.",
"C.C.C.C.0 p.x = k 8                         g Y J T p.0 C.C.C.C.",
"C.C.C.& J J u     f F F F F F F F F F F F F f     u J h $ C.C.C.",
"C.C.  % t 6 3 F F &.X.<.9.9.Q 8.9.5.` 3.+.=.^ ! F 3         C.C.",
"C.C.* I   1 F ( >.9.X.<.9.9.Q 8.9.5.` 3.,.y.o.9.9.o.1 K p.* C.C.",
"C.+ J L K d &.( w.j.X.<.9.9.Q 8.0.v.` 3.,.y.^ *.9.o.1   k J + C.",
"C.+ J k , X.&.( w.j.X.<.9.9.Q 8.9.5.` 3.,.y.^ 6.k.o.F , q t O C.",
"X t t 9 a 9.&.( w.j.X.<.b.e.Q 8...v.W #.c.=.^ 6.k.o.=.a         ",
"      ;  .9.&.( w.j.X.<.9.9.Q 8...v.W #.c.=.^ 6.k.o.=. .; U p.O ",
"O p.U 2 9.9.&.$.l.j.X.<.b.e.Q 8...v.W #.c.=.o.>.w.-.=.9.2 l J o ",
"o z     a 9.&.$.9.9.X.{ z.e.Q 8...v.` 9.9.=.o.>.w.-.=.9.2 l J o ",
"X r i f.        G j.X.{ z.e.Q 8.0.v.` r.c.=.o.>.>.o.=.c.p e t . ",
"    i m.B.M.N.a.V 9.X.{ z.e.Q 8.9.5.` 9.9.=.o.9.9.o.=.9.2       ",
"O R i f.        V 9.X.{ z.e.Q 8.0.v.` 9.9.=.o.>.>.o.=.c.p U p.O ",
"o z     # 4 4 4 ) 9.X.{ z.e.Q 8.9.5.` r.c.=.o.9.9.o.[ j.p l J o ",
"X t w @ M 9.&.$.9.9.X.<.b.e.Q } 9.5.W #.c.=.o.9.9.o.[ j.p e t . ",
"      2 9.9.&.$.9.9.X.<.9.9.Q 8.9.5.W #.c.=.f     f ] j.p       ",
"O p.U 2 9.9.&.$.l.j.X.<.9.9.Q } 9.5.W #.;.    i.i.    ;.p U p.O ",
"o J l 2 2.@.&.$.9.9.X.<.9.9.Q } n.5.W #.;.u.V.V.V.V.u.;.p l J o ",
"X t w 2 2.1.q.$.l.j.X.<.9.9.Q } n.5.W #.;.u.g.    g.u.;.p e t . ",
"      2 2.1.q.( w.j.X.<.O.4.Q } n.5.W O.| c d.    d.c ;.p       ",
"O p.U 2 2.1.q.( w.j.X.<.9.9.Q } n.5.` 9.$.< s.V.V.s.< $.2 U p.O ",
"o z     a h.q./ w.j.X.<.O.4.Q } n.5.W O.2.Z >     > :.t.2 l J o ",
"o z i f.        G j.X.<.O.x._ 8.n.5.` 9.2.] N 4 4 N y.t.2 e t . ",
"X r i m.B.M.N.a.G j.X.<.O.x._ 8.9.5.` 9.2.] o.>.w.-.y.t.2       ",
"    i f.        V 9.X.<.O.x._ 8.n.5.` 9.2.] o.>.w.-.y.t.2 U p.O ",
"O R     # 4 4 4 %.j.X.<.O.x._ 8.9.5.` 9.2.] o.9.l.-.=.9.2 l J o ",
"o J l @ b @.&.$.l.j.B $.O.} E 8.9.5.` 9.9.=.o.9.*.~ =.+.: l J o ",
"X t w : } } C D *.} n A } } s 7.} ' v 3.} Z S >.} m Z } : e t . ",
"                                                                "
};
