/* XPM */
static char *result[] = {
/* columns rows colors chars-per-pixel */
"32 32 5 1 ",
"  c black",
". c #D97716",
"X c #FFC34D",
"o c #FFF3CC",
"O c None",
/* pixels */
"OOOOOOOOOOOOOOOOOOOOOOOOOOOOOOOO",
"OOOOOOOOOOOOOOOOOOOOOOOOOOOOOOOO",
"OOOOOOOOOOOOOOOOOOOOOOOOOOOOOOOO",
"OOOOOOOOOOOOOOOOOOOOOOOOOOOOOOOO",
"OOOOOOOOOOOOOOOOOOOOOOOOOOOOOOOO",
"OOOOOOOOOOOOOOOOOOOOOOOOOOOOOOOO",
"OOOOOOOOOOOOOOOOOOOOOOOOOOOOOOOO",
"OOOOOOOOOOOOOOOOOOOOOOOOOOOOOOOO",
"OOOOOOOOOOOOOO    OOOOOOOOOOOOOO",
"OOOOOOOOOOOOO ..XX OOOOOOOOOOOOO",
"OOOOOOOOOOOOO ..oX OOOOOOOOOOOOO",
"OOOOOOOOOOOO ..oXXX OOOOOOOOOOOO",
"OOOOOOOOOOOO ..o..X OOOOOOOOOOOO",
"OOOOOOOOOOOO ..o..X OOOOOOOOOOOO",
"OOOOOOOOOOOO ..o..X OOOOOOOOOOOO",
"OOOOOOOOOOOO ..oX.X OOOOOOOOOOOO",
"OOOOOOOOOOOO ..oX.X OOOOOOOOOOOO",
"OOOOOOOOOOOO XXoo.X OOOOOOOOOOOO",
"OOOOOOOOOOOO XXoX.X OOOOOOOOOOOO",
"OOOOOOOOOOOO XXoo.X OOOOOOOOOOOO",
"OOOOOOOOOOOO XXoX.X OOOOOOOOOOOO",
"OOOOOOOOOOOOO XX.X OOOOOOOOOOOOO",
"OOOOOOOOOOOOO XXXX OOOOOOOOOOOOO",
"OOOOOOOOOOOOOO    OOOOOOOOOOOOOO",
"OOOOOOOOOOOOOOOOOOOOOOOOOOOOOOOO",
"OOOOOOOOOOOOOOOOOOOOOOOOOOOOOOOO",
"OOOOOOOOOOOOOOOOOOOOOOOOOOOOOOOO",
"OOOOOOOOOOOOOOOOOOOOOOOOOOOOOOOO",
"OOOOOOOOOOOOOOOOOOOOOOOOOOOOOOOO",
"OOOOOOOOOOOOOOOOOOOOOOOOOOOOOOOO",
"OOOOOOOOOOOOOOOOOOOOOOOOOOOOOOOO",
"OOOOOOOOOOOOOOOOOOOOOOOOOOOOOOOO"
};
