/* XPM */
static char *result[] = {
/* columns rows colors chars-per-pixel */
"32 32 5 1 ",
"  c black",
". c #D97716",
"X c #FFC34D",
"o c #FFF3CC",
"O c None",
/* pixels */
"OOOOOOOOOOOOOOOOOOOOOOOOOOOOOOOO",
"OOOOOOOOOOOOOOOOOOOOOOOOOOOOOOOO",
"OOOOOOOOOOOOOOOOOOOOOOOOOOOOOOOO",
"OOOOOOOOOOOOOOOOOOOOOOOOOOOOOOOO",
"OOOOOOOOOOOOOOOOOOOOOOOOOOOOOOOO",
"OOOOOOOOOOOOOOOOOOOOOOOOOOOOOOOO",
"OOOOOOOOOOOOOOOOOOOOOOOOOOOOOOOO",
"OOOOOOOOOOOOOOOOOOOOOOOOOOOOOOOO",
"OOOOOOOOOOOOOO    OOOOOOOOOOOOOO",
"OOOOOOOOOOOOO XXXX OOOOOOOOOOOOO",
"OOOOOOOOOOOOO X.XX OOOOOOOOOOOOO",
"OOOOOOOOOOOO X.XoXX OOOOOOOOOOOO",
"OOOOOOOOOOOO X.ooXX OOOOOOOOOOOO",
"OOOOOOOOOOOO X.XoXX OOOOOOOOOOOO",
"OOOOOOOOOOOO X.ooXX OOOOOOOOOOOO",
"OOOOOOOOOOOO X.Xo.. OOOOOOOOOOOO",
"OOOOOOOOOOOO X.Xo.. OOOOOOOOOOOO",
"OOOOOOOOOOOO X..o.. OOOOOOOOOOOO",
"OOOOOOOOOOOO X..o.. OOOOOOOOOOOO",
"OOOOOOOOOOOO X..o.. OOOOOOOOOOOO",
"OOOOOOOOOOOO XXXo.. OOOOOOOOOOOO",
"OOOOOOOOOOOOO Xo.. OOOOOOOOOOOOO",
"OOOOOOOOOOOOO XX.. OOOOOOOOOOOOO",
"OOOOOOOOOOOOOO    OOOOOOOOOOOOOO",
"OOOOOOOOOOOOOOOOOOOOOOOOOOOOOOOO",
"OOOOOOOOOOOOOOOOOOOOOOOOOOOOOOOO",
"OOOOOOOOOOOOOOOOOOOOOOOOOOOOOOOO",
"OOOOOOOOOOOOOOOOOOOOOOOOOOOOOOOO",
"OOOOOOOOOOOOOOOOOOOOOOOOOOOOOOOO",
"OOOOOOOOOOOOOOOOOOOOOOOOOOOOOOOO",
"OOOOOOOOOOOOOOOOOOOOOOOOOOOOOOOO",
"OOOOOOOOOOOOOOOOOOOOOOOOOOOOOOOO"
};
