/* XPM */
static char *result[] = {
/* columns rows colors chars-per-pixel */
"32 32 5 1 ",
"  c black",
". c #D97716",
"X c #FFC34D",
"o c #FFF3CC",
"O c None",
/* pixels */
"OOOOOOOOOOOOOOOOOOOOOOOOOOOOOOOO",
"OOOOOOOOOOOOOOOOOOOOOOOOOOOOOOOO",
"OOOOOOOOOOOOOOOOOOOOOOOOOOOOOOOO",
"OOOOOOOOOOOOOOOOOOOOOOOOOOOOOOOO",
"OOOOOOOOOOOOOOOOOOOOOOOOOOOOOOOO",
"OOOOOOOOOOOOOOOOOOOOOOOOOOOOOOOO",
"OOOOOOOOOOOOOOOOOOOOOOOOOOOOOOOO",
"OOOOOOOOOOOOOOOOOOOOOOOOOOOOOOOO",
"OOOOOOOOOOOOO      OOOOOOOOOOOOO",
"OOOOOOOOOOOO .XXXXX OOOOOOOOOOOO",
"OOOOOOOOOOO .XoooooX OOOOOOOOOOO",
"OOOOOOOOOO .XoXXXXX.X OOOOOOOOOO",
"OOOOOOOOOO .XoX..XX.X OOOOOOOOOO",
"OOOOOOOOO .XoXX.XoXX.X OOOOOOOOO",
"OOOOOOOOO .Xo...XX.X.X OOOOOOOOO",
"OOOOOOOOO .Xo.XXXXXo.X OOOOOOOOO",
"OOOOOOOOO .Xo.XXXXXo.X OOOOOOOOO",
"OOOOOOOOO XXoXoXXooo.X OOOOOOOOO",
"OOOOOOOOO XXoXX.XoXX.X OOOOOOOOO",
"OOOOOOOOOO XXoXXooX.X OOOOOOOOOO",
"OOOOOOOOOO XXoXXXXX.X OOOOOOOOOO",
"OOOOOOOOOOO XX.....X OOOOOOOOOOO",
"OOOOOOOOOOOO XXXXXX OOOOOOOOOOOO",
"OOOOOOOOOOOOO      OOOOOOOOOOOOO",
"OOOOOOOOOOOOOOOOOOOOOOOOOOOOOOOO",
"OOOOOOOOOOOOOOOOOOOOOOOOOOOOOOOO",
"OOOOOOOOOOOOOOOOOOOOOOOOOOOOOOOO",
"OOOOOOOOOOOOOOOOOOOOOOOOOOOOOOOO",
"OOOOOOOOOOOOOOOOOOOOOOOOOOOOOOOO",
"OOOOOOOOOOOOOOOOOOOOOOOOOOOOOOOO",
"OOOOOOOOOOOOOOOOOOOOOOOOOOOOOOOO",
"OOOOOOOOOOOOOOOOOOOOOOOOOOOOOOOO"
};
