/* XPM */
static char *result[] = {
/* columns rows colors chars-per-pixel */
"32 32 25 1 ",
"  c black",
". c #0A2121",
"X c #262528",
"o c #29303B",
"O c #373A38",
"+ c #753E2D",
"@ c #6B4F29",
"# c #213B45",
"$ c #33636B",
"% c #585356",
"& c #696354",
"* c #4F526B",
"= c #828573",
"- c #D48C52",
"; c #4F828A",
": c #8C8688",
"> c gray58",
", c #BAB0B4",
"< c #BCBCBC",
"1 c #EBB385",
"2 c #FFD9AD",
"3 c LightGray",
"4 c #E2E2E2",
"5 c white",
"6 c None",
/* pixels */
"666666666666OOOOOOOOO66666666666",
"6666666666OO::%OOO%::OO666666666",
"666666666O:::::%O%:::::O66666666",
"66666666O:,,::::%::::,,:O6666666",
"6666666O:,::::::%::::::,:O666666",
"6666666O,,:::::%%%:::::,,:O66666",
"666666O:,,,,:,:OOO:,:,,,:,O66666",
"66666O:%,:,,%,%XXX%,%,,::%%O6666",
"666X%%%,:%,:%:%222%:%:,%::%%%X66",
"6666X%:::%,%O:O222O:O%,%:::%X666",
"6666O:::%::OX%O222O%XO::%:::O666",
"666O:%::%::X+XX222XX+X::%O%::O66",
"66O%%O:%%:%>  11111  >%:%OO%%%O6",
"66XXOO%X%:%3  11111  3%:%O%OOXX6",
"6666X%% %:%3@@11111@@3%:%O%%X666",
"6666X:%XO:%3@@22222@@3%:OO%:X666",
"6666X:OOO:O12222222221O:OOO:X666",
"6666O%XOX%O-122222221-O%XOX%O666",
"666X%%OOXOX +--111--++XOXOO%%X66",
"666X%OO#$X$..+++++++..$X$#OO%X66",
"666X%XO#$;$.#-1---1-#.$;$#OX%X66",
"666XOX..##.#$;;$;$;;$#.##..XOX66",
"666XO+-1.. #$;;#$#;;$# ..1-+OX66",
"6666X+121+ .###...###. +121+ 666",
"6666 -111 O &##$$$##& O 111- 666",
"6666 -1-+ X&<45<<<54<&X +-1- 666",
"66666 -- 6 <=<45554<=< 6 -- 6666",
"666666  66 <4<<4<4<<4< 66  66666",
"6666666666&<4<45454<4<&666666666",
"6666666666 &<<45454<<& 666666666",
"66666666666 ooo   ooo 6666666666",
"66666666666 o*o 6 o*o 6666666666"
};
