/* XPM */
static char *result[] = {
/* columns rows colors chars-per-pixel */
"32 32 97 2 ",
"   c #3E3731",
".  c #473E27",
"X  c #463A2E",
"o  c #4B3B2D",
"O  c #403631",
"+  c #493730",
"@  c #463C34",
"#  c #4B3D35",
"$  c #453D39",
"%  c #4C3E3A",
"&  c #513C35",
"*  c #4B402A",
"=  c #51412F",
"-  c #58472D",
";  c #4C4135",
":  c #46403B",
">  c #4D413B",
",  c #544435",
"<  c #594535",
"1  c #544835",
"2  c #54453C",
"3  c #59463B",
"4  c #56493D",
"5  c #5B4A3D",
"6  c #4E4641",
"7  c #544641",
"8  c #5A4641",
"9  c #554A42",
"0  c #5A4B43",
"q  c #554A48",
"w  c #594E48",
"e  c #5E5044",
"r  c #5E514A",
"t  c #614E43",
"y  c #665243",
"u  c #6B5446",
"i  c #65544B",
"p  c #695548",
"a  c #66594A",
"s  c #6D5C4D",
"d  c #705E46",
"f  c #725D4D",
"g  c #655A52",
"h  c #6C5D53",
"j  c #665E59",
"k  c #6D5F59",
"l  c #715E53",
"z  c #715F59",
"x  c #6D604F",
"c  c #736046",
"v  c #72624D",
"b  c #78634E",
"n  c #6E6153",
"m  c #6D615A",
"M  c #736254",
"N  c #796353",
"B  c #796852",
"V  c #73625A",
"C  c #7A665A",
"Z  c #776B5B",
"A  c #7A6C5A",
"S  c #6E6360",
"D  c #816C5C",
"F  c #886F5A",
"G  c #86705E",
"H  c #8B715A",
"J  c #856E63",
"K  c #807064",
"L  c #8A7768",
"P  c #8F7D6B",
"I  c #907D6E",
"U  c #9B886F",
"Y  c #958474",
"T  c #998575",
"R  c #998876",
"E  c #9E8A7A",
"W  c #9F9074",
"Q  c #A18B75",
"!  c #A18B7C",
"~  c #A59576",
"^  c #A5947C",
"/  c #AB957C",
"(  c #AA987E",
")  c #B0987E",
"_  c #9E9486",
"`  c #9E9488",
"'  c #9C9490",
"]  c #A28E83",
"[  c #A59483",
"{  c #AA9583",
"}  c #AA9984",
"|  c #A4968B",
" . c #AA968A",
".. c #AC9B8B",
"X. c #B09889",
"o. c #AF9D91",
"O. c #BDB2AB",
/* pixels */
"g h ^ f l V % % 5 3 8 0 0 7 7 { ; a m ; 4 [ s M x m # 2 / F ! O.",
"| l s M l V % q < X.[ ( ( ~ - < 2 , m @ 7 4 # # ; $ q 2 { G l j ",
"g l h h m & 8 2 ! c d N l l  .7 # 7 , % 7 @ 7 7 > 2 5 0 , , l k ",
"g M m m # w 9 < { l z V z z + 2 @ 2 , 4 4 , X 4 4 } ( { 2 0 # k ",
"g n # # w t 3 { s l l C  .x # 9 4 < ( ^ ^ ^ 2 5 W M m m @ q 0 6 ",
"$ # 0 8 0 y { f v M M M M n ; w 5 ! b f M M # 9 5 2 > ; 7 e 2 q ",
"$ 7 0 6 2 u { v [ M M C ^ n > 9 5 E b C M V % 7 2 7 9 5 4 e 0 q ",
"> 5 3 9 > y { d s [ C M M n # 9 = T l M { h % 7 7 2 [ [ [ [ i 0 ",
"[ / { 2 e 0 3 [ s M M M M o w 4 < < & V s h # 9 5 [ d f . * 4 0 ",
"g s s  .4 > 9 7 @ @ $ % > 9 , ~  .i w @ @ # q % 2 [ s o.+ 4 3 [ ",
"g l V # 7 # ; 2 2 1 1 9 w , ~ l # 5 4 1 2 7 2 5 # [ o X 2 w ! f ",
"j o.m ; 0 0 3 ( / / / ] 5 4 ..% 5 1 ~ ^ ^ / / d 3 4 4 0 q 0 Q M ",
"m M # 9 4 y [ x M V V N  .8 0 0 4 R v C X.l f ! r 5 4 9 q q E M ",
"@ , 3 0 5 y [ c M n M l C ] 5 3 ~ B l ^ l V V 5 9 0 * ^ 6 7 e 4 ",
"6 t , ..[ 5 5 } s s [ V M o 3 3 ^ B V M V h m 4 2 5 } n % 7 e 0 ",
"6 2 { v s 2 q , M s l V V # 2 2 ^ C m M X # @ 2 7 2 } h % 9 5 0 ",
"O 3  .# % 7 : 3 4 ..n m > # 4 q 1 * 6 ; 9 9 4 % # 3 o & 9 w 5 [ ",
"[ = 0 9 3 5 3 , 5 4 ; 6 q 9 # 1 5 4 0 5 # 3 2 3 , 3 7 9 3 5 ! C ",
"s { , < [ ..{ ..# # 4 0 5 4 5 [ 2 0 5 5 ( ^ ^ ^ ( 3 2 # & L D V ",
"s 2 5 ! A A B 2 2 4 5 5 5 1 E Z ; 2 5 R B B b B v ! 5 0 5 Y D V ",
"j # < { C h ; 4 # 3 [ { [ , 5 ; 0 0  .f l z k V ^ b { 3 3 I D V ",
"h @ <  .& , 9 4 2  .N M f # 9 9 7 # { d l h l n f b { 3 < P D n ",
"  q < 2 q 9 # , { s h n V n X 2 4 ; [ d s [ s l f { v } , t R m ",
"> < / [ 5 0 5 ..l h ..s s | M # 4 7 ; [ M s M s l l M s  .v 5 # ",
"4 { v n 2 p [ s l l l { M v M l # 2 5 { v h l M l  .n M M Y i w ",
"2 { # S 2 p { c l z M M M ^ M V > 2 0 5 [ l V M M V V V m i t w ",
"4 5 9 7 0 u { v V N / V V V V z m 2 0 0 5 / { J m n V M m w 0 2 ",
"| o.4 9 0 u  .v V  .d V V V M l m 2 0 ; 4 1 = # # % % > % 2 2 ` ",
"j h  .4 9 8 3 o m h s V V z n V # 2 4 7 @ 4 4 , 2 4 7 q 7 0 E V ",
"h s d # 9 0 8 2 @ V V V V V V # 0 2 2 9 4 , } ( { , * > , P D h ",
"s { n m ; 0 5 7 9 > > ; > # ; 3 < R { 8 3 ( v l v { < < { L N h ",
"j j m m m > q q 9 6 7 q q 7 q q _ Z V % q [ h k k m > 2 [ A V ` "
};
