/* XPM */
static char *result[] = {
/* columns rows colors chars-per-pixel */
"32 32 26 1 ",
"  c black",
". c gray8",
"X c #0A2121",
"o c #262528",
"O c #29303B",
"+ c #373A38",
"@ c #753E2D",
"# c #6B4F29",
"$ c #213B45",
"% c #33636B",
"& c #585356",
"* c #696354",
"= c #4F526B",
"- c #828573",
"; c #D48C52",
": c #4F828A",
"> c #8C8688",
", c gray58",
"< c #BAB0B4",
"1 c #BCBCBC",
"2 c #EBB385",
"3 c #FFD9AD",
"4 c LightGray",
"5 c #E2E2E2",
"6 c white",
"7 c None",
/* pixels */
"777777777++&&++&&&++777777777777",
"7777777+&>>>&&>>>>>>++7777777777",
"777777+>>>>&>>>>>>><<>+777777777",
"77777+&><>&>>>>>>>>><<>+77777777",
"77777+><>&&>>>>>>>>><<<>+7777777",
"7777+&><&o&><&<<>><<<>><&+777777",
"7777o&<>+3+&<&><<><<>>&&>&+o7777",
"7777o&<&o3o&>+&<<&><>>>&++o77777",
"77777+>+333+>o+><&>>>>>>&o777777",
"77777o&+333+&o+>>>&>>&>>>&+77777",
"777777+o233oo@;&>>&>>&&&>>&+7777",
"777777oo222  ,;&>>+&>>&&+&&&o777",
"7777777 222  4;&>>+o>>&&+ooo7777",
"7777777 222##42+>&+o&&&&&+777777",
"7777777 333##43+>&+o+&&&&+o77777",
"7777777 3333333o>&oo+&&+&&o77777",
"7777777 ;333333o&&ooo&&o&&+o7777",
"77777777 ;23333o&+..o+&o+&+o7777",
"777777777  @@@o+&o$$$X&o+&+o7777",
"77777777777$;2o+o$::%X+oo&+o7777",
"7777777777 %$$%o$$::%$Xoo++o7777",
"777777777 $%$%::$X$%$$Xoo+o77777",
"777777777 $%$%:%$X233X@oo+o77777",
"777777777 XXXX$$$X;33;@o7o777777",
"7777777777 X$$%$XX;33; 777777777",
"77777777777***----233@7777777777",
"7777777777*-166651232 * 77777777",
"7777777777-111511-** -* 77777777",
"7777777777-15656511-*-* 77777777",
"77777777777*-15651-**  777777777",
"777777777777  OOOO   77777777777",
"7777777777777 O=OO 7777777777777"
};
