/* XPM */
static char *result[] = {
/* columns rows colors chars-per-pixel */
"32 32 26 1 ",
"  c black",
". c gray8",
"X c #0A2121",
"o c #262528",
"O c #29303B",
"+ c #373A38",
"@ c #753E2D",
"# c #6B4F29",
"$ c #213B45",
"% c #33636B",
"& c #585356",
"* c #696354",
"= c #4F526B",
"- c #828573",
"; c #D48C52",
": c #4F828A",
"> c #8C8688",
", c gray58",
"< c #BAB0B4",
"1 c #BCBCBC",
"2 c #EBB385",
"3 c #FFD9AD",
"4 c LightGray",
"5 c #E2E2E2",
"6 c white",
"7 c None",
/* pixels */
"777777777777++&&&++&&++777777777",
"7777777777++>>>>>>&&>>>&+7777777",
"777777777+><<>>>>>>>&>>>>+777777",
"77777777+><<>>>>>>>>>&><>&+77777",
"7777777+><<<>>>>>>>>>&&><>+77777",
"777777+&<>><<<>><<&<>&o&<>&+7777",
"7777o+&>&&>><<><<>&<&+3+><&o7777",
"77777o++&>>><>&<<&+>&o3o&<&o7777",
"777777o&>>>>>>&<>+o>+333+>+77777",
"77777+&>>>&>>&>>>+o&+333+&o77777",
"7777+&>>&&&>>&>>&;@oo332o+777777",
"777o&&&+&&>>&+>>&;,  222oo777777",
"7777ooo+&&>>o+>>&;4  222 7777777",
"777777+&&&&&o+&>+24##222 7777777",
"77777o+&&&&+o+&>+34##333 7777777",
"77777o&&+&&+oo&>o3333333 7777777",
"7777o+&&o&&ooo&&o333333; 7777777",
"7777o+&+o&+o..+&o33332; 77777777",
"7777o+&+o&X$$$o&+o@@@  777777777",
"7777o+&oo+X%::$o+o2;$77777777777",
"7777o++ooX$%::$$o%$$% 7777777777",
"77777o+ooX$$%$X$::%$%$ 777777777",
"77777o+oo@X332X$%:%$%$ 777777777",
"777777o7o@;33;X$$$XXXX 777777777",
"777777777 ;33;XX$%$$X 7777777777",
"7777777777@332----***77777777777",
"77777777 * 232156661-*7777777777",
"77777777 *-@**-115111-7777777777",
"77777777 *-*-11565651-7777777777",
"777777777  **-15651-*77777777777",
"77777777777   OOOO  777777777777",
"7777777777777 OO=O 7777777777777"
};
