/* XPM */
static char *result[] = {
/* columns rows colors chars-per-pixel */
"32 32 18 1 ",
"  c black",
". c #182038",
"X c #262528",
"o c #29303B",
"O c #373A38",
"+ c #753E2D",
"@ c #585356",
"# c #696354",
"$ c #828573",
"% c #D48C52",
"& c #8C8688",
"* c #BAB0B4",
"= c #BCBCBC",
"- c #EBB385",
"; c #FFD9AD",
": c #E2E2E2",
"> c white",
", c None",
/* pixels */
",,,,,,,,,,,,OOOOOOOOO,,,,,,,,,,,",
",,,,,,,,,,OO&&@OOO@&&OO,,,,,,,,,",
",,,,,,,,,O&&&&&@O@&&&&&O,,,,,,,,",
",,,,,,,,O&**&&&&@&&&&**&O,,,,,,,",
",,,,,,,O&**&&&&&@&&&&&**&O,,,,,,",
",,,,,,,O***&&&&&&&&&&&***OO,,,,,",
",,,,,,O&****&&&&&&&&&****&O,,,,,",
",,,,,O&@*&***&&&&&&&***&*@&O,,,,",
",,,X@@@*&@&&*&*****&*&&@&*@@@X,,",
",,,,X@&&&@&&&&*&&&*&&&&@&&&@X,,,",
",,,,O&&&@@&&@&&&&&&&@&&@@&&&O,,,",
",,,O&&@&O&&&@&&&&&&&@&&&O&@&&O,,",
",,O@@O&&O&&@&&&&&&&&&@&&O&&O@@O,",
",,XXO@&O@&&@&&&&&&&&&@&&@O&@OXX,",
",,,,X@@X@&&@&&&&&&&@&@&&@X@@X,,,",
",,,,X@OO&&&@&&@&&&&@&&@&&OO@X,,,",
",,,,XOX@*&@&&&@&&&&@&&@&&@XOX,,,",
",,,,,XX@*&@*&&@&*&@@&&@&&@XX,,,,",
",,,,,,X@*&O**@&&*&@O&&O&&@X,,,,,",
",,,,,,X@&@O&*@&**&@O&@O@&@X,,,,,",
",,,,,,XO&@O@&O@**&@O&@O@&OX,,,,,",
",,,,,,+O@@O@&O@&*&@O@OO@@O+,,,,,",
",,,,,,+XO@X@@O@&&&OO@OX@OX+,,,,,",
",,,,,+%;XOXO@XO@&@OX@OXOX;%+,,,,",
",,,,+%-;-XXO@XXO@OXXOOXX-;-%+,,,",
",,,,+%--% .XOX>XOX:XOX. %--%+,,,",
",,,,, %% , =$:>>>>::$$ , %% ,,,,",
",,,,,,  ,, =:==:=:=$$$ ,,  ,,,,,",
",,,,,,,,,,#=:=:>:>:$=$#,,,,,,,,,",
",,,,,,,,,, #==:>:>===# ,,,,,,,,,",
",,,,,,,,,,, ooo   ooo ,,,,,,,,,,",
",,,,,,,,,,, ooo , ooo ,,,,,,,,,,"
};
